<svg xmlns="http://www.w3.org/2000/svg" width="250" height="190" viewBox="0 0 250 190">
  <defs>
    <filter id="glow1">
      <feGaussianBlur stdDeviation="2" result="blur"/>
      <feMerge>
        <feMergeNode in="blur"/>
        <feMergeNode in="SourceGraphic"/>
      </feMerge>
    </filter>
    <radialGradient id="bg2" cx="50%" cy="55%" r="70%">
      <stop offset="0%" stop-color="#2a1815"/>
      <stop offset="60%" stop-color="#1a0d08"/>
      <stop offset="100%" stop-color="#0d0604"/>
    </radialGradient>
    <linearGradient id="lin3" x1="0%" y1="0%" x2="100%" y2="100%">
      <stop offset="0%" stop-color="#5a5a5a" stop-opacity="0"/>
      <stop offset="50%" stop-color="#7a7a7a" stop-opacity="0.5"/>
      <stop offset="100%" stop-color="#4a4a4a" stop-opacity="0.8"/>
    </linearGradient>
  </defs>

  <rect width="250" height="190" fill="url(#bg2)" rx="8"/>
  <ellipse cx="125.0" cy="95.0" rx="120.0" ry="79.8" fill="#3a2a20" opacity="0.08"/>
  <!-- Falling ash streaks -->
  <line x1="144.9" y1="68.9" x2="144.9" y2="77.8" stroke="#7a7a7a" stroke-width="1.2" opacity="0.49"/>
  <line x1="140.8" y1="141.7" x2="140.8" y2="160.3" stroke="#6a6a6a" stroke-width="1.1" opacity="0.28"/>
  <line x1="24.7" y1="82.2" x2="24.7" y2="96.2" stroke="#8a8a8a" stroke-width="0.7" opacity="0.34"/>
  <line x1="79.2" y1="79.2" x2="79.2" y2="89.9" stroke="#7a7a7a" stroke-width="0.9" opacity="0.40"/>
  <line x1="116.2" y1="47.3" x2="116.2" y2="65.9" stroke="#6a6a6a" stroke-width="0.6" opacity="0.44"/>
  <line x1="103.7" y1="26.0" x2="103.7" y2="42.8" stroke="#8a8a8a" stroke-width="1.0" opacity="0.34"/>
  <line x1="188.5" y1="0.4" x2="188.5" y2="15.5" stroke="#8a8a8a" stroke-width="0.7" opacity="0.46"/>
  <line x1="149.6" y1="71.3" x2="149.6" y2="94.4" stroke="#8a8a8a" stroke-width="1.5" opacity="0.50"/>
  <line x1="91.2" y1="94.1" x2="91.2" y2="115.0" stroke="#5a5a5a" stroke-width="0.8" opacity="0.42"/>
  <line x1="93.0" y1="145.1" x2="93.0" y2="154.4" stroke="#5a5a5a" stroke-width="1.4" opacity="0.48"/>
  <line x1="29.5" y1="127.5" x2="29.5" y2="138.9" stroke="#6a6a6a" stroke-width="0.7" opacity="0.26"/>
  <line x1="206.8" y1="38.0" x2="206.8" y2="55.7" stroke="#6a6a6a" stroke-width="1.0" opacity="0.43"/>
  <line x1="126.5" y1="184.7" x2="126.5" y2="206.0" stroke="#7a7a7a" stroke-width="1.4" opacity="0.37"/>
  <line x1="112.5" y1="102.3" x2="112.5" y2="116.6" stroke="#6a6a6a" stroke-width="0.9" opacity="0.45"/>
  <line x1="210.0" y1="129.4" x2="210.0" y2="137.7" stroke="#6a6a6a" stroke-width="1.3" opacity="0.33"/>
  <line x1="121.3" y1="185.2" x2="121.3" y2="202.8" stroke="#6a6a6a" stroke-width="1.1" opacity="0.44"/>
  <line x1="163.4" y1="171.4" x2="163.4" y2="188.4" stroke="#6a6a6a" stroke-width="0.7" opacity="0.43"/>
  <line x1="118.8" y1="81.3" x2="118.8" y2="97.1" stroke="#7a7a7a" stroke-width="0.6" opacity="0.23"/>
  <line x1="196.6" y1="79.1" x2="196.6" y2="104.1" stroke="#6a6a6a" stroke-width="0.8" opacity="0.22"/>
  <line x1="228.5" y1="87.0" x2="228.5" y2="107.6" stroke="#7a7a7a" stroke-width="0.6" opacity="0.42"/>
  <line x1="103.1" y1="128.5" x2="103.1" y2="153.4" stroke="#6a6a6a" stroke-width="1.5" opacity="0.30"/>
  <line x1="182.8" y1="59.6" x2="182.8" y2="82.5" stroke="#7a7a7a" stroke-width="1.4" opacity="0.48"/>
  <line x1="194.3" y1="135.0" x2="194.3" y2="156.4" stroke="#8a8a8a" stroke-width="0.9" opacity="0.48"/>
  <line x1="52.2" y1="96.7" x2="52.2" y2="109.2" stroke="#8a8a8a" stroke-width="0.8" opacity="0.36"/>
  <line x1="24.2" y1="144.1" x2="24.2" y2="162.5" stroke="#8a8a8a" stroke-width="0.5" opacity="0.23"/>
  <line x1="213.7" y1="135.3" x2="213.7" y2="153.2" stroke="#6a6a6a" stroke-width="1.2" opacity="0.42"/>
  <line x1="75.5" y1="34.7" x2="75.5" y2="49.9" stroke="#8a8a8a" stroke-width="1.5" opacity="0.36"/>
  <line x1="50.8" y1="110.5" x2="50.8" y2="126.1" stroke="#7a7a7a" stroke-width="1.0" opacity="0.30"/>
  <line x1="179.9" y1="74.3" x2="179.9" y2="90.9" stroke="#7a7a7a" stroke-width="0.7" opacity="0.49"/>
  <line x1="73.2" y1="107.8" x2="73.2" y2="131.9" stroke="#7a7a7a" stroke-width="1.2" opacity="0.22"/>
  <line x1="190.2" y1="149.1" x2="190.2" y2="170.7" stroke="#8a8a8a" stroke-width="1.1" opacity="0.47"/>
  <line x1="215.2" y1="151.3" x2="215.2" y2="175.4" stroke="#7a7a7a" stroke-width="1.2" opacity="0.24"/>
  <line x1="219.8" y1="119.9" x2="219.8" y2="144.6" stroke="#7a7a7a" stroke-width="1.3" opacity="0.24"/>
  <line x1="150.3" y1="136.2" x2="150.3" y2="155.4" stroke="#6a6a6a" stroke-width="0.9" opacity="0.21"/>
  <line x1="99.2" y1="95.4" x2="99.2" y2="107.9" stroke="#8a8a8a" stroke-width="0.6" opacity="0.49"/>
  <line x1="206.6" y1="95.2" x2="206.6" y2="106.8" stroke="#7a7a7a" stroke-width="1.2" opacity="0.43"/>
  <line x1="116.1" y1="80.0" x2="116.1" y2="92.3" stroke="#8a8a8a" stroke-width="0.5" opacity="0.23"/>
  <line x1="33.4" y1="160.0" x2="33.4" y2="169.1" stroke="#8a8a8a" stroke-width="1.3" opacity="0.47"/>
  <line x1="172.8" y1="16.1" x2="172.8" y2="36.9" stroke="#7a7a7a" stroke-width="0.6" opacity="0.23"/>
  <line x1="42.5" y1="25.2" x2="42.5" y2="49.8" stroke="#6a6a6a" stroke-width="1.2" opacity="0.41"/>
  <!-- Glowing embers mixed in -->
  <circle cx="57.7" cy="90.8" r="1.7" fill="#ff8800" opacity="0.4" filter="url(#glow1)"/>
  <circle cx="220.5" cy="100.4" r="1.4" fill="#ff8800" opacity="0.4" filter="url(#glow1)"/>
  <circle cx="80.0" cy="127.4" r="1.2" fill="#ff8800" opacity="0.4" filter="url(#glow1)"/>
  <circle cx="203.0" cy="27.8" r="1.7" fill="#ff8800" opacity="0.4" filter="url(#glow1)"/>
  <circle cx="129.9" cy="129.1" r="1.1" fill="#ff8800" opacity="0.4" filter="url(#glow1)"/>
  <circle cx="99.8" cy="65.9" r="1.6" fill="#ff8800" opacity="0.4" filter="url(#glow1)"/>
  <circle cx="233.7" cy="86.1" r="1.0" fill="#ff8800" opacity="0.4" filter="url(#glow1)"/>
  <circle cx="93.1" cy="69.8" r="1.1" fill="#ff8800" opacity="0.4" filter="url(#glow1)"/>
  <circle cx="68.1" cy="25.1" r="1.1" fill="#ff8800" opacity="0.4" filter="url(#glow1)"/>
  <circle cx="203.0" cy="114.1" r="0.8" fill="#ff8800" opacity="0.4" filter="url(#glow1)"/>
  <circle cx="122.4" cy="169.0" r="1.5" fill="#ff8800" opacity="0.4" filter="url(#glow1)"/>
  <circle cx="59.9" cy="186.7" r="1.2" fill="#ff8800" opacity="0.4" filter="url(#glow1)"/>
  <!-- Ash accumulation at bottom -->
  <ellipse cx="125" cy="185" rx="100" ry="10" fill="#4a4a4a" opacity="0.4"/>
  <ellipse cx="125" cy="182" rx="70" ry="6" fill="#7a7a7a" opacity="0.3"/>
</svg>
