<svg xmlns="http://www.w3.org/2000/svg" width="250" height="190" viewBox="0 0 250 190">
  <defs>
    <filter id="glow1">
      <feGaussianBlur stdDeviation="2.5" result="blur"/>
      <feMerge>
        <feMergeNode in="blur"/>
        <feMergeNode in="SourceGraphic"/>
      </feMerge>
    </filter>
    <radialGradient id="bg2" cx="50%" cy="55%" r="70%">
      <stop offset="0%" stop-color="#2a1815"/>
      <stop offset="60%" stop-color="#1a0d08"/>
      <stop offset="100%" stop-color="#0d0604"/>
    </radialGradient>
    <linearGradient id="lin3" x1="0%" y1="0%" x2="100%" y2="100%">
      <stop offset="0%" stop-color="#5a4a3a"/>
      <stop offset="30%" stop-color="#4a3a2a"/>
      <stop offset="60%" stop-color="#3a2a20"/>
      <stop offset="100%" stop-color="#2a1a10"/>
    </linearGradient>
    <linearGradient id="lin4" x1="0%" y1="0%" x2="100%" y2="100%">
      <stop offset="0%" stop-color="#ff8800" stop-opacity="0.6"/>
      <stop offset="50%" stop-color="#e6591a" stop-opacity="0.4"/>
      <stop offset="100%" stop-color="#8a2a05" stop-opacity="0.3"/>
    </linearGradient>
  </defs>

  <rect width="250" height="190" fill="url(#bg2)" rx="8"/>
  <ellipse cx="125.0" cy="95.0" rx="120.0" ry="79.8" fill="#e6591a" opacity="0.05"/>
  <circle cx="203.8" cy="94.7" r="1.0" fill="#5a5a5a" opacity="0.55"/>
  <circle cx="12.1" cy="160.8" r="0.7" fill="#7a7a7a" opacity="0.59"/>
  <circle cx="205.4" cy="103.5" r="0.8" fill="#7a7a7a" opacity="0.38"/>
  <circle cx="14.2" cy="158.4" r="1.2" fill="#888888" opacity="0.33"/>
  <circle cx="225.5" cy="60.1" r="0.8" fill="#6a6a6a" opacity="0.38"/>
  <circle cx="203.2" cy="163.9" r="1.1" fill="#999999" opacity="0.56"/>
  <circle cx="30.2" cy="94.1" r="2.0" fill="#999999" opacity="0.56"/>
  <circle cx="33.7" cy="45.2" r="1.7" fill="#6a6a6a" opacity="0.31"/>
  <circle cx="76.1" cy="141.9" r="0.6" fill="#555555" opacity="0.49"/>
  <circle cx="183.0" cy="80.6" r="1.7" fill="#999999" opacity="0.45"/>
  <circle cx="204.2" cy="29.7" r="1.5" fill="#e6591a" opacity="0.46" filter="url(#glow1)"/>
  <circle cx="237.3" cy="140.3" r="1.6" fill="#e6591a" opacity="0.56"/>
  <circle cx="130.6" cy="135.8" r="1.4" fill="#e6591a" opacity="0.27" filter="url(#glow1)"/>
  <circle cx="212.0" cy="164.1" r="2.3" fill="#ff8800" opacity="0.31" filter="url(#glow1)"/>
  <rect x="50" y="30" width="150" height="35" fill="url(#lin3)" stroke="#1a0d08" stroke-width="1" rx="3"/>
  <rect x="50" y="70" width="150" height="35" fill="url(#lin3)" stroke="#1a0d08" stroke-width="1" rx="3"/>
  <rect x="50" y="110" width="150" height="35" fill="url(#lin3)" stroke="#1a0d08" stroke-width="1" rx="3"/>
  <rect x="50" y="150" width="150" height="35" fill="url(#lin3)" stroke="#1a0d08" stroke-width="1" rx="3"/>
  <rect x="50" y="30" width="35" height="160" fill="url(#lin3)" stroke="#1a0d08" stroke-width="1" rx="3"/>
  <rect x="115" y="30" width="35" height="160" fill="url(#lin3)" stroke="#1a0d08" stroke-width="1" rx="3"/>
  <rect x="165" y="30" width="35" height="160" fill="url(#lin3)" stroke="#1a0d08" stroke-width="1" rx="3"/>
  <!-- Glowing seams -->
  <line x1="50" y1="65" x2="200" y2="65" stroke="url(#lin4)" stroke-width="1.5" opacity="0.6" filter="url(#glow1)"/>
  <line x1="50" y1="105" x2="200" y2="105" stroke="url(#lin4)" stroke-width="1.5" opacity="0.6" filter="url(#glow1)"/>
  <line x1="50" y1="145" x2="200" y2="145" stroke="url(#lin4)" stroke-width="1.5" opacity="0.6" filter="url(#glow1)"/>
  <line x1="110" y1="30" x2="110" y2="190" stroke="url(#lin4)" stroke-width="1" opacity="0.4" filter="url(#glow1)"/>
  <line x1="160" y1="30" x2="160" y2="190" stroke="url(#lin4)" stroke-width="1" opacity="0.4" filter="url(#glow1)"/>
  <!-- Rivets -->
  <circle cx="55" cy="35" r="2.5" fill="#3a2a20"/>
  <circle cx="55" cy="35" r="1" fill="#ff8800" opacity="0.5" filter="url(#glow1)"/>
  <circle cx="195" cy="35" r="2.5" fill="#3a2a20"/>
  <circle cx="195" cy="35" r="1" fill="#ff8800" opacity="0.5" filter="url(#glow1)"/>
  <circle cx="55" cy="75" r="2.5" fill="#3a2a20"/>
  <circle cx="55" cy="75" r="1" fill="#ff8800" opacity="0.5" filter="url(#glow1)"/>
  <circle cx="195" cy="75" r="2.5" fill="#3a2a20"/>
  <circle cx="195" cy="75" r="1" fill="#ff8800" opacity="0.5" filter="url(#glow1)"/>
  <circle cx="55" cy="115" r="2.5" fill="#3a2a20"/>
  <circle cx="55" cy="115" r="1" fill="#ff8800" opacity="0.5" filter="url(#glow1)"/>
  <circle cx="195" cy="115" r="2.5" fill="#3a2a20"/>
  <circle cx="195" cy="115" r="1" fill="#ff8800" opacity="0.5" filter="url(#glow1)"/>
  <circle cx="55" cy="155" r="2.5" fill="#3a2a20"/>
  <circle cx="55" cy="155" r="1" fill="#ff8800" opacity="0.5" filter="url(#glow1)"/>
  <circle cx="195" cy="155" r="2.5" fill="#3a2a20"/>
  <circle cx="195" cy="155" r="1" fill="#ff8800" opacity="0.5" filter="url(#glow1)"/>
  <!-- Ember veins on plates -->
  <circle cx="80" cy="50" r="2" fill="#ff8800" opacity="0.4" filter="url(#glow1)"/>
  <circle cx="140" cy="90" r="2" fill="#ff8800" opacity="0.4" filter="url(#glow1)"/>
  <circle cx="90" cy="130" r="2" fill="#ff8800" opacity="0.4" filter="url(#glow1)"/>
  <circle cx="160" cy="50" r="2" fill="#ff8800" opacity="0.4" filter="url(#glow1)"/>
  <circle cx="120" cy="170" r="2" fill="#ff8800" opacity="0.4" filter="url(#glow1)"/>
</svg>
