<svg xmlns="http://www.w3.org/2000/svg" width="250" height="190" viewBox="0 0 250 190">
  <defs>
    <filter id="glow1">
      <feGaussianBlur stdDeviation="2.5" result="blur"/>
      <feMerge>
        <feMergeNode in="blur"/>
        <feMergeNode in="SourceGraphic"/>
      </feMerge>
    </filter>
    <filter id="soft2">
      <feGaussianBlur stdDeviation="5" result="blur"/>
      <feMerge>
        <feMergeNode in="blur"/>
        <feMergeNode in="SourceGraphic"/>
      </feMerge>
    </filter>
    <radialGradient id="bg3" cx="50%" cy="55%" r="70%">
      <stop offset="0%" stop-color="#2a1815"/>
      <stop offset="60%" stop-color="#1a0d08"/>
      <stop offset="100%" stop-color="#0d0604"/>
    </radialGradient>
    <linearGradient id="lin4" x1="0%" y1="0%" x2="100%" y2="100%">
      <stop offset="0%" stop-color="#ffcc40"/>
      <stop offset="100%" stop-color="#c41a05" stop-opacity="0.0"/>
    </linearGradient>
  </defs>

  <rect width="250" height="190" fill="url(#bg3)" rx="8"/>
  <ellipse cx="125.0" cy="95.0" rx="120.0" ry="79.8" fill="#ff8800" opacity="0.08"/>
  <circle cx="98.3" cy="85.5" r="1.3" fill="#ff8800" opacity="0.48"/>
  <circle cx="81.6" cy="100.7" r="0.7" fill="#ff6600" opacity="0.22" filter="url(#glow1)"/>
  <circle cx="85.5" cy="149.9" r="2.0" fill="#ff8800" opacity="0.44" filter="url(#glow1)"/>
  <circle cx="141.6" cy="81.0" r="1.2" fill="#ffe060" opacity="0.52" filter="url(#glow1)"/>
  <circle cx="175.5" cy="173.6" r="2.3" fill="#ffe060" opacity="0.23" filter="url(#glow1)"/>
  <circle cx="18.7" cy="181.8" r="1.8" fill="#c41a05" opacity="0.28" filter="url(#glow1)"/>
  <circle cx="196.3" cy="78.4" r="1.3" fill="#fff8e0" opacity="0.47" filter="url(#glow1)"/>
  <circle cx="146.2" cy="64.2" r="1.2" fill="#ffcc40" opacity="0.47" filter="url(#glow1)"/>
  <circle cx="104.8" cy="154.4" r="1.3" fill="#ff6600" opacity="0.35" filter="url(#glow1)"/>
  <circle cx="12.4" cy="132.8" r="1.6" fill="#ff8800" opacity="0.56"/>
  <circle cx="42.7" cy="163.4" r="2.3" fill="#ffcc40" opacity="0.63" filter="url(#glow1)"/>
  <circle cx="235.2" cy="51.8" r="1.5" fill="#e6591a" opacity="0.21" filter="url(#glow1)"/>
  <path d="M 10 158 Q 65 126 125 140 Q 185 154 240 130" stroke="url(#lin4)" stroke-width="12" fill="none" opacity="0.6" stroke-linecap="round" filter="url(#soft2)"/>
  <path d="M 10 123 Q 65 91 125 105 Q 185 119 240 95" stroke="url(#lin4)" stroke-width="10" fill="none" opacity="0.5" stroke-linecap="round" filter="url(#soft2)"/>
  <path d="M 10 88 Q 65 56 125 70 Q 185 84 240 60" stroke="url(#lin4)" stroke-width="8" fill="none" opacity="0.4" stroke-linecap="round" filter="url(#soft2)"/>
  <path d="M 10 56 Q 65 24 125 38 Q 185 52 240 28" stroke="url(#lin4)" stroke-width="6" fill="none" opacity="0.3" stroke-linecap="round" filter="url(#soft2)"/>
  <line x1="125.0" y1="95.0" x2="142.0" y2="78.8" stroke="#ff8800" stroke-width="1.7" opacity="0.45"/>
  <line x1="125.0" y1="95.0" x2="140.1" y2="94.5" stroke="#fff8e0" stroke-width="0.9" opacity="0.50"/>
  <line x1="125.0" y1="95.0" x2="130.4" y2="107.3" stroke="#fff8e0" stroke-width="1.0" opacity="0.72"/>
  <line x1="125.0" y1="95.0" x2="143.8" y2="116.3" stroke="#fff8e0" stroke-width="1.3" opacity="0.40"/>
  <line x1="125.0" y1="95.0" x2="111.9" y2="96.6" stroke="#ff8800" stroke-width="0.7" opacity="0.59"/>
  <line x1="125.0" y1="95.0" x2="110.3" y2="96.7" stroke="#ffe060" stroke-width="0.8" opacity="0.44" filter="url(#glow1)"/>
  <line x1="125.0" y1="95.0" x2="139.4" y2="69.8" stroke="#ff8800" stroke-width="1.3" opacity="0.57"/>
  <line x1="125.0" y1="95.0" x2="131.0" y2="107.4" stroke="#ffe060" stroke-width="1.1" opacity="0.73"/>
</svg>
