<svg xmlns="http://www.w3.org/2000/svg" width="250" height="190" viewBox="0 0 250 190">
  <defs>
    <filter id="glow1">
      <feGaussianBlur stdDeviation="3" result="blur"/>
      <feMerge>
        <feMergeNode in="blur"/>
        <feMergeNode in="SourceGraphic"/>
      </feMerge>
    </filter>
    <filter id="soft2">
      <feGaussianBlur stdDeviation="6" result="blur"/>
      <feMerge>
        <feMergeNode in="blur"/>
        <feMergeNode in="SourceGraphic"/>
      </feMerge>
    </filter>
    <radialGradient id="bg3" cx="50%" cy="55%" r="70%">
      <stop offset="0%" stop-color="#2a1815"/>
      <stop offset="60%" stop-color="#1a0d08"/>
      <stop offset="100%" stop-color="#0d0604"/>
    </radialGradient>
    <linearGradient id="lin4" x1="0%" y1="100%" x2="0%" y2="0%">
      <stop offset="0%" stop-color="#8a2a05"/>
      <stop offset="30%" stop-color="#e6591a"/>
      <stop offset="60%" stop-color="#ff8800"/>
      <stop offset="100%" stop-color="#ffe060"/>
    </linearGradient>
  </defs>

  <rect width="250" height="190" fill="url(#bg3)" rx="8"/>
  <ellipse cx="125.0" cy="95.0" rx="120.0" ry="79.8" fill="#8a2a05" opacity="0.08"/>
  <circle cx="120.2" cy="22.6" r="1.4" fill="#ff6600" opacity="0.54"/>
  <circle cx="18.9" cy="76.5" r="2.5" fill="#e6591a" opacity="0.50"/>
  <circle cx="188.2" cy="67.1" r="0.7" fill="#e6591a" opacity="0.49" filter="url(#glow1)"/>
  <circle cx="154.0" cy="165.7" r="2.4" fill="#ffcc40" opacity="0.58"/>
  <circle cx="10.5" cy="138.9" r="1.4" fill="#ffe060" opacity="0.46" filter="url(#glow1)"/>
  <circle cx="11.7" cy="91.3" r="2.1" fill="#ffcc40" opacity="0.47" filter="url(#glow1)"/>
  <circle cx="66.9" cy="163.8" r="0.7" fill="#c41a05" opacity="0.53"/>
  <circle cx="178.0" cy="48.3" r="2.1" fill="#ff7a1a" opacity="0.42"/>
  <circle cx="149.5" cy="128.1" r="1.6" fill="#ff7a1a" opacity="0.46" filter="url(#glow1)"/>
  <circle cx="50.9" cy="171.0" r="2.4" fill="#ff8800" opacity="0.39"/>
  <circle cx="117.5" cy="28.9" r="0.7" fill="#e6591a" opacity="0.23"/>
  <circle cx="159.1" cy="67.5" r="2.4" fill="#ff6600" opacity="0.45" filter="url(#glow1)"/>
  <circle cx="59.4" cy="132.2" r="1.6" fill="#c41a05" opacity="0.33" filter="url(#glow1)"/>
  <circle cx="156.6" cy="77.0" r="1.7" fill="#ff8800" opacity="0.46"/>
  <circle cx="64.8" cy="94.3" r="0.8" fill="#ffe060" opacity="0.62"/>
  <circle cx="95.5" cy="58.0" r="1.0" fill="#fff8e0" opacity="0.50"/>
  <circle cx="101.8" cy="30.9" r="2.5" fill="#ffcc40" opacity="0.59"/>
  <circle cx="182.3" cy="130.5" r="0.7" fill="#ff8800" opacity="0.24"/>
  <circle cx="161.1" cy="45.3" r="2.0" fill="#e6591a" opacity="0.44" filter="url(#glow1)"/>
  <circle cx="81.6" cy="72.4" r="0.7" fill="#c41a05" opacity="0.67" filter="url(#glow1)"/>
  <path d="M 0 170 L 0 130 Q 30 100 50 120 Q 70 90 90 110 Q 110 80 125 100 Q 140 80 160 110 Q 180 90 200 120 Q 220 100 250 130 L 250 170 Z" fill="url(#lin4)" opacity="0.6" filter="url(#soft2)"/>
  <path d="M 20.0 130.0 Q 3.9 117.5 16.1 107.5 Q 17.6 97.5 17.0 80.0 Q 22.4 95.0 26.1 102.5 Q 33.6 115.0 20.0 130.0 Z" fill="#ff8800" opacity="0.5" filter="url(#glow1)"/>
  <path d="M 50.0 120.0 Q 36.4 106.2 49.2 95.2 Q 47.2 84.2 50.8 65.0 Q 52.8 81.5 58.4 89.8 Q 67.9 103.5 50.0 120.0 Z" fill="#ffe060" opacity="0.4" filter="url(#glow1)"/>
  <path d="M 80.0 110.0 Q 61.3 95.0 71.4 83.0 Q 76.8 71.0 82.5 50.0 Q 83.2 68.0 85.4 77.0 Q 93.5 92.0 80.0 110.0 Z" fill="#ff8800" opacity="0.5" filter="url(#glow1)"/>
  <path d="M 110.0 100.0 Q 90.9 83.8 98.7 70.8 Q 106.4 57.8 110.8 35.0 Q 113.6 54.5 115.7 64.2 Q 128.9 80.5 110.0 100.0 Z" fill="#ffe060" opacity="0.4" filter="url(#glow1)"/>
  <path d="M 125.0 100.0 Q 106.3 82.5 115.2 68.5 Q 121.0 54.5 124.5 30.0 Q 129.0 51.0 132.2 61.5 Q 144.4 79.0 125.0 100.0 Z" fill="#fff8e0" opacity="0.3" filter="url(#glow1)"/>
  <path d="M 140.0 100.0 Q 117.1 83.8 128.8 70.8 Q 136.4 57.8 142.7 35.0 Q 143.6 54.5 145.9 64.2 Q 163.0 80.5 140.0 100.0 Z" fill="#ffe060" opacity="0.4" filter="url(#glow1)"/>
  <path d="M 170.0 110.0 Q 151.5 95.0 164.3 83.0 Q 166.8 71.0 168.1 50.0 Q 173.2 68.0 179.2 77.0 Q 189.1 92.0 170.0 110.0 Z" fill="#ff8800" opacity="0.5" filter="url(#glow1)"/>
  <path d="M 200.0 120.0 Q 188.3 106.2 195.0 95.2 Q 197.2 84.2 204.1 65.0 Q 202.8 81.5 206.9 89.8 Q 212.8 103.5 200.0 120.0 Z" fill="#e6591a" opacity="0.4" filter="url(#glow1)"/>
  <path d="M 230.0 130.0 Q 218.5 117.5 224.3 107.5 Q 227.6 97.5 231.8 80.0 Q 232.4 95.0 237.6 102.5 Q 244.6 115.0 230.0 130.0 Z" fill="#ff8800" opacity="0.5" filter="url(#glow1)"/>
  <circle cx="40" cy="80" r="15" fill="#1a0d08" opacity="0.2" filter="url(#soft2)"/>
  <circle cx="80" cy="65" r="18" fill="#1a0d08" opacity="0.15" filter="url(#soft2)"/>
  <circle cx="125" cy="55" r="20" fill="#1a0d08" opacity="0.2" filter="url(#soft2)"/>
  <circle cx="170" cy="65" r="18" fill="#1a0d08" opacity="0.15" filter="url(#soft2)"/>
  <circle cx="210" cy="80" r="15" fill="#1a0d08" opacity="0.2" filter="url(#soft2)"/>
  <circle cx="137.0" cy="64.9" r="1.9" fill="#e6591a" opacity="0.5" filter="url(#glow1)"/>
  <circle cx="119.1" cy="32.8" r="2.2" fill="#ff8800" opacity="0.5" filter="url(#glow1)"/>
  <circle cx="62.5" cy="24.4" r="2.3" fill="#ff8800" opacity="0.5" filter="url(#glow1)"/>
  <circle cx="216.7" cy="104.4" r="1.4" fill="#ffe060" opacity="0.5" filter="url(#glow1)"/>
  <circle cx="139.9" cy="36.2" r="1.6" fill="#ff8800" opacity="0.5" filter="url(#glow1)"/>
  <circle cx="179.0" cy="57.6" r="2.1" fill="#ffe060" opacity="0.5" filter="url(#glow1)"/>
  <circle cx="130.3" cy="49.2" r="1.4" fill="#e6591a" opacity="0.5" filter="url(#glow1)"/>
  <circle cx="64.5" cy="49.2" r="2.1" fill="#ffe060" opacity="0.5" filter="url(#glow1)"/>
  <circle cx="170.2" cy="30.7" r="1.1" fill="#e6591a" opacity="0.5" filter="url(#glow1)"/>
  <circle cx="74.2" cy="111.2" r="1.4" fill="#e6591a" opacity="0.5" filter="url(#glow1)"/>
  <circle cx="133.2" cy="82.4" r="1.6" fill="#ffe060" opacity="0.5" filter="url(#glow1)"/>
  <circle cx="166.5" cy="91.9" r="1.9" fill="#e6591a" opacity="0.5" filter="url(#glow1)"/>
  <circle cx="65.7" cy="25.9" r="1.9" fill="#e6591a" opacity="0.5" filter="url(#glow1)"/>
  <circle cx="223.1" cy="33.9" r="2.4" fill="#e6591a" opacity="0.5" filter="url(#glow1)"/>
  <circle cx="118.7" cy="79.1" r="1.7" fill="#ff8800" opacity="0.5" filter="url(#glow1)"/>
  <ellipse cx="125.0" cy="170.0" rx="100.0" ry="8.0" fill="#8a2a05" opacity="0.4" filter="url(#soft2)"/>
</svg>
