<svg xmlns="http://www.w3.org/2000/svg" width="128" height="128" viewBox="0 0 128 128">
  <defs>
    <filter id="glow1">
      <feGaussianBlur stdDeviation="2" result="blur"/>
      <feMerge>
        <feMergeNode in="blur"/>
        <feMergeNode in="SourceGraphic"/>
      </feMerge>
    </filter>
    <filter id="soft2">
      <feGaussianBlur stdDeviation="4" result="blur"/>
      <feMerge>
        <feMergeNode in="blur"/>
        <feMergeNode in="SourceGraphic"/>
      </feMerge>
    </filter>
    <radialGradient id="bg3" cx="50%" cy="50%" r="65%">
      <stop offset="0%" stop-color="#2a1815"/>
      <stop offset="60%" stop-color="#1a0d08"/>
      <stop offset="100%" stop-color="#0d0604"/>
    </radialGradient>
    <radialGradient id="rad4" cx="50%" cy="50%" r="50%">
      <stop offset="0%" stop-color="#ff8800" stop-opacity="0.4"/>
      <stop offset="40%" stop-color="#e6591a" stop-opacity="0.2"/>
      <stop offset="100%" stop-color="#8a2a05" stop-opacity="0"/>
    </radialGradient>
    <linearGradient id="lin5" x1="0%" y1="0%" x2="100%" y2="100%">
      <stop offset="0%" stop-color="#ffcc40"/>
      <stop offset="40%" stop-color="#ff8800"/>
      <stop offset="80%" stop-color="#e6591a"/>
      <stop offset="100%" stop-color="#8a2a05"/>
    </linearGradient>
  </defs>

  <rect width="128" height="128" fill="url(#bg3)" rx="8"/>
  <ellipse cx="64.0" cy="64.0" rx="61.4" ry="53.8" fill="#e6591a" opacity="0.06"/>
  <circle cx="87.2" cy="53.5" r="1.7" fill="#ffcc40" opacity="0.61" filter="url(#glow1)"/>
  <circle cx="33.3" cy="119.4" r="1.4" fill="#e6591a" opacity="0.38"/>
  <circle cx="23.1" cy="22.6" r="1.9" fill="#ffe060" opacity="0.56" filter="url(#glow1)"/>
  <circle cx="85.2" cy="54.4" r="2.2" fill="#fff8e0" opacity="0.36"/>
  <circle cx="88.5" cy="79.9" r="1.6" fill="#fff8e0" opacity="0.47" filter="url(#glow1)"/>
  <circle cx="109.3" cy="70.9" r="1.0" fill="#ffe060" opacity="0.25" filter="url(#glow1)"/>
  <circle cx="80.1" cy="96.4" r="1.4" fill="#ffcc40" opacity="0.50" filter="url(#glow1)"/>
  <circle cx="101.4" cy="112.4" r="2.4" fill="#ff6600" opacity="0.58"/>
  <ellipse cx="64" cy="64" rx="45" ry="42" fill="url(#rad4)" filter="url(#soft2)"/>
  <!-- Dragon silhouette -->
  <path d="M 30 70 Q 25 50 35 40 Q 45 30 55 28 Q 65 25 70 30 Q 80 25 90 30 Q 100 35 100 50 Q 105 55 100 65 Q 95 75 85 72 Q 75 78 65 75 Q 55 78 45 75 Q 35 78 30 70 Z" fill="url(#lin5)" opacity="0.7" filter="url(#soft2)"/>
  <!-- Dragon eye -->
  <circle cx="50" cy="48" r="3" fill="#ffe060" opacity="0.8" filter="url(#glow1)"/>
  <circle cx="50" cy="48" r="1.5" fill="#fff8e0" opacity="0.9"/>
  <!-- Dragon horns -->
  <path d="M 35 40 Q 30 30 25 25" stroke="#e6591a" stroke-width="2" fill="none" opacity="0.5"/>
  <path d="M 90 30 Q 95 20 100 15" stroke="#e6591a" stroke-width="2" fill="none" opacity="0.5"/>
  <!-- Flame breath -->
  <path d="M 100.0 55.0 Q 90.0 48.8 97.2 43.8 Q 98.4 38.8 97.6 30.0 Q 101.6 37.5 101.4 41.2 Q 105.8 47.5 100.0 55.0 Z" fill="#ff8800" opacity="0.5" filter="url(#glow1)"/>
  <path d="M 100.0 55.0 Q 94.7 50.5 98.8 46.9 Q 99.0 43.3 98.9 37.0 Q 101.0 42.4 102.6 45.1 Q 103.8 49.6 100.0 55.0 Z" fill="#ffe060" opacity="0.4" filter="url(#glow1)"/>
  <line x1="64.0" y1="50.0" x2="70.5" y2="46.0" stroke="#fff8e0" stroke-width="0.7" opacity="0.68" filter="url(#glow1)"/>
  <line x1="64.0" y1="50.0" x2="73.0" y2="55.1" stroke="#fff8e0" stroke-width="1.6" opacity="0.85" filter="url(#glow1)"/>
  <line x1="64.0" y1="50.0" x2="70.6" y2="51.4" stroke="#ffe060" stroke-width="1.2" opacity="0.75" filter="url(#glow1)"/>
  <line x1="64.0" y1="50.0" x2="58.4" y2="53.0" stroke="#ff8800" stroke-width="1.8" opacity="0.66" filter="url(#glow1)"/>
  <line x1="64.0" y1="50.0" x2="64.1" y2="57.3" stroke="#ffe060" stroke-width="0.7" opacity="0.83"/>
  <line x1="64.0" y1="50.0" x2="71.4" y2="38.0" stroke="#ffe060" stroke-width="1.3" opacity="0.71"/>
</svg>
