<svg xmlns="http://www.w3.org/2000/svg" width="128" height="128" viewBox="0 0 128 128">
  <defs>
    <filter id="glow1">
      <feGaussianBlur stdDeviation="2" result="blur"/>
      <feMerge>
        <feMergeNode in="blur"/>
        <feMergeNode in="SourceGraphic"/>
      </feMerge>
    </filter>
    <filter id="soft2">
      <feGaussianBlur stdDeviation="4" result="blur"/>
      <feMerge>
        <feMergeNode in="blur"/>
        <feMergeNode in="SourceGraphic"/>
      </feMerge>
    </filter>
    <radialGradient id="bg3" cx="50%" cy="50%" r="65%">
      <stop offset="0%" stop-color="#2a1815"/>
      <stop offset="60%" stop-color="#1a0d08"/>
      <stop offset="100%" stop-color="#0d0604"/>
    </radialGradient>
    <linearGradient id="lin4" x1="0%" y1="0%" x2="100%" y2="100%">
      <stop offset="0%" stop-color="#ffcc40"/>
      <stop offset="40%" stop-color="#ff8800"/>
      <stop offset="80%" stop-color="#e6591a"/>
      <stop offset="100%" stop-color="#8a2a05"/>
    </linearGradient>
    <radialGradient id="rad5" cx="50%" cy="50%" r="50%">
      <stop offset="0%" stop-color="#fff8e0" stop-opacity="0.6"/>
      <stop offset="50%" stop-color="#ffe060" stop-opacity="0.3"/>
      <stop offset="100%" stop-color="#8a2a05" stop-opacity="0"/>
    </radialGradient>
  </defs>

  <rect width="128" height="128" fill="url(#bg3)" rx="8"/>
  <ellipse cx="64.0" cy="64.0" rx="61.4" ry="53.8" fill="#e6591a" opacity="0.06"/>
  <circle cx="53.9" cy="14.5" r="1.1" fill="#c41a05" opacity="0.56" filter="url(#glow1)"/>
  <circle cx="73.2" cy="27.6" r="1.8" fill="#ff6600" opacity="0.66" filter="url(#glow1)"/>
  <circle cx="26.0" cy="39.7" r="1.7" fill="#e6591a" opacity="0.63" filter="url(#glow1)"/>
  <circle cx="22.7" cy="28.3" r="1.4" fill="#e6591a" opacity="0.59" filter="url(#glow1)"/>
  <circle cx="28.7" cy="91.3" r="1.1" fill="#ff8800" opacity="0.61" filter="url(#glow1)"/>
  <circle cx="103.6" cy="19.1" r="1.2" fill="#ff7a1a" opacity="0.57"/>
  <circle cx="65.4" cy="25.4" r="1.7" fill="#ff7a1a" opacity="0.46"/>
  <circle cx="15.6" cy="118.4" r="0.9" fill="#ffcc40" opacity="0.45"/>
  <!-- Chain -->
  <path d="M 64 12 Q 60 20 64 28 Q 60 36 64 44" stroke="#4a3020" stroke-width="2" fill="none" opacity="0.6"/>
  <path d="M 64 12 Q 68 20 64 28 Q 68 36 64 44" stroke="#3a2010" stroke-width="1" fill="none" opacity="0.5"/>
  <!-- Amulet body -->
  <path d="M 64 50 Q 35 55 30 75 Q 28 95 40 105 Q 55 115 64 110 Q 73 115 88 105 Q 100 95 98 75 Q 93 55 64 50 Z" fill="url(#lin4)" opacity="0.7" filter="url(#soft2)"/>
  <!-- Scale texture -->
  <path d="M 42 70 Q 48 65.8 54 70 Q 48 74.2 42 70 Z" fill="#e6591a" opacity="0.4" filter="url(#glow1)"/>
  <path d="M 57 65 Q 64 60.1 71 65 Q 64 69.9 57 65 Z" fill="#e6591a" opacity="0.4" filter="url(#glow1)"/>
  <path d="M 74 70 Q 80 65.8 86 70 Q 80 74.2 74 70 Z" fill="#e6591a" opacity="0.4" filter="url(#glow1)"/>
  <path d="M 47 88 Q 52 84.5 57 88 Q 52 91.5 47 88 Z" fill="#e6591a" opacity="0.4" filter="url(#glow1)"/>
  <path d="M 58 85 Q 64 80.8 70 85 Q 64 89.2 58 85 Z" fill="#e6591a" opacity="0.4" filter="url(#glow1)"/>
  <path d="M 71 88 Q 76 84.5 81 88 Q 76 91.5 71 88 Z" fill="#e6591a" opacity="0.4" filter="url(#glow1)"/>
  <path d="M 54 100 Q 58 97.2 62 100 Q 58 102.8 54 100 Z" fill="#e6591a" opacity="0.4" filter="url(#glow1)"/>
  <path d="M 66 100 Q 70 97.2 74 100 Q 70 102.8 66 100 Z" fill="#e6591a" opacity="0.4" filter="url(#glow1)"/>
  <!-- Center gem -->
  <circle cx="64" cy="80" r="10" fill="url(#rad5)" filter="url(#glow1)"/>
  <circle cx="64" cy="80" r="5" fill="#fff8e0" opacity="0.7"/>
  <circle cx="62" cy="78" r="2" fill="#ffffff" opacity="0.9"/>
  <line x1="64.0" y1="80.0" x2="60.6" y2="72.3" stroke="#ffe060" stroke-width="1.7" opacity="0.75" filter="url(#glow1)"/>
  <line x1="64.0" y1="80.0" x2="54.2" y2="76.6" stroke="#ff8800" stroke-width="0.9" opacity="0.57"/>
  <line x1="64.0" y1="80.0" x2="61.3" y2="73.8" stroke="#fff8e0" stroke-width="1.1" opacity="0.49" filter="url(#glow1)"/>
  <line x1="64.0" y1="80.0" x2="50.1" y2="82.6" stroke="#fff8e0" stroke-width="1.1" opacity="0.47"/>
  <line x1="64.0" y1="80.0" x2="61.8" y2="71.5" stroke="#ffcc40" stroke-width="0.9" opacity="0.63" filter="url(#glow1)"/>
  <line x1="64.0" y1="80.0" x2="67.6" y2="70.6" stroke="#ffe060" stroke-width="0.6" opacity="0.84"/>
</svg>
